<svg width="46" height="12" viewBox="0 0 46 12" fill="none" xmlns="http://www.w3.org/2000/svg">
<path d="M11.4516 6.44427V6.39861H12.7567V6.53473C12.7567 7.00721 13.0258 7.19691 14.2084 7.19691C15.2525 7.19691 15.4964 7.05991 15.4964 6.7174C15.4964 6.40563 15.2956 6.29146 14.6933 6.20013L13.0609 5.99463C12.0178 5.8506 11.4004 5.39392 11.4004 4.56488C11.4004 3.79644 12.1132 2.99023 14.0698 2.99023C15.8608 2.99023 16.6961 3.71301 16.6961 4.78532V4.83011H15.383V4.72472C15.383 4.23731 15.0959 4.03268 13.9393 4.03268C12.9996 4.03268 12.7135 4.19164 12.7135 4.51922C12.7135 4.81605 12.9043 4.92232 13.3912 4.99872L15.0266 5.22706C16.3317 5.40885 16.8005 5.96477 16.8005 6.66471C16.8005 7.49375 16.0616 8.23936 14.2084 8.23936C12.4485 8.23936 11.4516 7.63075 11.4516 6.44427Z" fill="white"/>
<path d="M16.6885 8.16741L19.2364 3.07373H21.0977L23.6628 8.16741H22.1669L21.6188 7.04153H18.7074L18.1492 8.16741H16.6885ZM19.2103 6.01489H21.1178L20.5697 4.90394L20.2133 4.11354H20.1179L19.7615 4.90394L19.2103 6.01489Z" fill="white"/>
<path d="M24.04 8.16741L26.588 3.07373H28.4493L31.0153 8.16741H29.5155L28.9673 7.04153H26.0559L25.4998 8.16741H24.04ZM26.5619 6.01489H28.4694L27.9192 4.89955L27.5628 4.10915H27.4624L27.106 4.89955L26.5619 6.01489Z" fill="white"/>
<path d="M31.3228 8.1675V3.07382H33.0887L34.454 5.58465L35.0011 6.77903H35.1015L35.6316 5.58465L36.9448 3.06592H38.7187V8.1675H37.4136V5.57675L37.4578 4.77757H37.3574L37.019 5.57675L35.8013 7.86012H34.2241L33.0073 5.57675L32.668 4.77757H32.5676L32.6198 5.57675V8.1675H31.3228Z" fill="white"/>
<path d="M39.0249 8.16741L41.5729 3.07373H43.4342L46.0002 8.16741H44.5043L43.9562 7.04153H41.0448L40.4866 8.16741H39.0249ZM41.5468 6.01489H43.4542L42.9061 4.90394L42.5497 4.11354H42.4493L42.0929 4.90394L41.5468 6.01489Z" fill="white"/>
<path d="M6.89009 0V2.98595C5.97629 2.98595 5.09992 3.3035 4.45376 3.86874C3.80761 4.43399 3.44461 5.20062 3.44461 6H0.03125C0.0333756 4.40927 0.756684 2.88423 2.0425 1.75941C3.32833 0.634598 5.07166 0.00185942 6.89009 0V0Z" fill="white"/>
<path d="M0 12V9.01405C0.913799 9.01405 1.79017 8.6965 2.43632 8.13126C3.08248 7.56601 3.44548 6.79938 3.44548 6H6.85884C6.85671 7.59073 6.1334 9.11577 4.84758 10.2406C3.56176 11.3654 1.81842 11.9981 0 12H0Z" fill="white"/>
</svg>
