<svg width="58" height="47" viewBox="0 0 58 47" fill="none" xmlns="http://www.w3.org/2000/svg">
<g style="mix-blend-mode:luminosity">
<path d="M29.2434 5.17242C28.3597 2.96602 26.2069 0.583118 22.1749 0.910463C17.0387 1.46882 15.4382 6.39096 16.2145 9.32736C14.1688 7.94219 10.6905 7.33312 7.65445 9.93376C3.7344 13.8633 5.8312 19.1775 7.98616 20.4522C5.61119 20.2323 1.8576 21.8371 1.02723 26.0351C0.143877 31.2472 4.11715 34.2857 7.98616 34.2857H50.8891C55.363 34.2857 57.8452 30.4152 57.5668 26.765C57.1279 22.0011 52.7686 20.1733 50.3906 20.565C52.3774 19.4565 55.0307 14.2498 50.9961 10.1564C47.7934 7.11012 43.7107 8.21858 42.2751 9.54721C43.049 7.00238 41.7799 1.74189 36.5855 0.909897C36.2264 0.869696 35.8807 0.848181 35.5512 0.848181C31.586 0.848747 29.8029 3.74737 29.2434 5.17242Z" fill="white"/>
<path d="M8.36888 10.7632C6.10383 12.8136 5.27944 17.4597 9.36264 20.1757L25.6523 31.3516L17.754 13.2564C16.0989 8.98637 11.5711 8.05521 8.36888 10.7632Z" fill="#F37021"/>
<path d="M22.3909 1.96524C19.743 2.01919 15.7669 5.17236 17.5364 9.98733L25.7055 29.2532L28.576 8.9892C29.2403 3.95406 25.4298 1.62972 22.3909 1.96524Z" fill="#CC004C"/>
<path d="M29.8507 8.21631H31.3954C31.3954 8.21631 32.2202 8.21631 32.3325 8.60546C31.7247 9.10185 30.0701 9.16405 30.2898 11.8156L32.8865 29.2504L40.9997 9.93401C42.6593 5.62101 39.1759 2.019 36.086 1.90892C35.9417 1.89856 35.7968 1.89015 35.6469 1.89015C32.8736 1.89007 29.6954 3.90567 29.8507 8.21631Z" fill="#6460AA"/>
<path d="M40.6737 13.4205L32.9999 31.2986L49.2848 20.0638C53.0387 17.4012 52.4333 13.1443 50.3319 11.0401C49.451 10.0498 47.8335 9.28476 46.1201 9.28476C44.0959 9.28436 41.9295 10.358 40.6737 13.4205Z" fill="#0089D0"/>
<path d="M47.4613 22.6075L32.1678 33.2899H50.9986C54.8619 33.2899 57.3446 29.3066 56.2409 25.6512C55.5017 23.3535 53.3147 21.5499 50.7763 21.5473C49.7078 21.5478 48.5746 21.8696 47.4613 22.6075Z" fill="#0DB14B"/>
<path d="M7.93003 33.2899H26.4829L11.1855 22.6076C7.65146 20.3369 3.6777 21.6656 2.24311 25.4336C1.02707 29.747 4.06329 33.2899 7.93003 33.2899Z" fill="#FCB711"/>
</g>
<path d="M0.962158 41.021C0.962158 42.8403 2.44941 46.1518 8.12824 46.1518C13.364 46.1518 15.0176 43.7493 15.0176 42.6478H10.9642C10.9642 42.6478 10.7717 44.1031 8.48511 44.1031C6.19709 44.1031 5.57831 42.1933 5.57831 41.089C5.57831 39.9889 6.19709 38.1822 8.48511 38.1822C10.7717 38.1822 10.9642 39.4493 10.9642 39.4493H15.0176C15.0176 38.3464 13.8043 35.9778 8.12824 35.9778C2.44941 35.9778 0.962158 39.5046 0.962158 41.021Z" fill="white"/>
<path d="M43.4723 41.021C43.4723 42.8403 44.9611 46.1518 50.6384 46.1518C55.8736 46.1518 57.5279 43.7493 57.5279 42.6478H53.4773C53.4773 42.6478 53.2839 44.1031 50.9968 44.1031C48.7085 44.1031 48.0891 42.1933 48.0891 41.089C48.0891 39.9889 48.7085 38.1822 50.9968 38.1822C53.2839 38.1822 53.4773 39.4493 53.4773 39.4493H57.5279C57.5279 38.3464 56.3159 35.9778 50.6384 35.9778C44.9612 35.9778 43.4723 39.5046 43.4723 41.021Z" fill="white"/>
<path d="M26.0958 36.1477V42.3064L21.3785 36.1477H16.0719V45.9026H19.7099V39.6731L24.3447 45.9026H29.7341V36.1477H26.0958Z" fill="white"/>
<path d="M37.7536 43.5721V43.585H34.7223V41.7938H37.7536V41.7997C38.4008 41.7997 38.9239 42.1975 38.9239 42.6873C38.9239 43.1759 38.4008 43.5721 37.7536 43.5721ZM34.7501 38.0449H37.6709V38.0491C38.1658 38.0491 38.5671 38.3746 38.5671 38.7753C38.5671 39.1776 38.1658 39.5003 37.6709 39.5003V39.5047H34.7501V38.0449ZM40.7308 40.7165C41.3931 40.7165 42.7778 39.9477 42.7778 38.4583C42.7778 36.3374 38.8284 36.1477 38.2226 36.1477H30.9459V45.9026H38.2226C41.7223 45.9026 43.1282 44.797 43.1282 42.9507C43.1282 41.1044 40.7308 40.7165 40.7308 40.7165Z" fill="white"/>
</svg>
