<svg width="251" height="23" viewBox="0 0 251 23" fill="none" xmlns="http://www.w3.org/2000/svg">
<g clip-path="url(#clip0_43_389)">
<path d="M3.74901 22.3495C5.49731 22.341 6.61963 22.2726 7.13824 22.1508C7.64267 22.0226 7.94452 21.6722 8.03771 21.0975C8.13495 20.525 8.15926 15.2693 8.12077 5.3326L8.00732 0.843899L5.66748 0.858854C4.36892 0.997724 3.38234 1.46561 2.6976 2.25183C1.93589 3.15555 1.2937 4.04004 1.09111 6.09532H0.935123L0.90271 0.239281L10.0494 0.235008L19.3925 0.190142L19.4189 6.09532H19.35C19.0036 3.91186 18.8253 3.80076 18.57 3.19828C17.8792 1.60021 16.5969 0.809715 14.721 0.818261L12.1015 0.828934L12.055 5.89876L12.0874 13.12C12.1056 18.3693 12.136 21.136 12.1664 21.4159C12.2049 21.7 12.6283 21.9115 13.4467 22.0696C14.257 22.2213 15.2416 22.3004 16.374 22.2897L16.5361 22.6593L3.58695 22.7191L3.74902 22.3495M25.4891 22.7063L21.3625 22.6251L17.0008 22.7191V22.2662C18.7917 22.2533 19.7519 22.0718 19.8532 21.715C19.8958 21.5889 19.9241 21.0954 19.9383 20.2237C19.9484 19.3563 19.9504 18.1514 19.9423 16.6152L19.9282 13.0495L19.9201 10.834L19.916 10.1354L19.914 9.60766L19.912 9.16969L19.914 8.83853C19.9059 8.11641 19.8694 7.68698 19.7945 7.54598C19.683 7.20201 18.7349 7.03323 16.938 7.04177V6.55679L21.4354 6.63157L25.4283 6.51834L25.4325 7.00118C23.909 7.00759 23.0562 7.17423 22.8698 7.48829C22.7705 7.77458 22.726 9.94522 22.7442 14.0002L29.6422 13.966L29.6299 12.603L29.6279 11.5283C29.6198 9.16969 29.5671 7.82158 29.4557 7.48616C29.3422 7.14646 28.4853 6.9905 26.8667 6.99263L26.8687 6.51193L30.7867 6.59311L35.3853 6.47134L35.3873 6.95418C33.6066 6.96058 32.6666 7.12723 32.5694 7.4477C32.4722 7.76603 32.4276 9.5692 32.4478 12.8529L32.452 14.3378C32.4682 18.9654 32.533 21.4266 32.6404 21.7342C32.7518 22.0355 33.6837 22.1829 35.4462 22.1743L35.4503 22.6593L30.9895 22.5824L26.9378 22.6764L26.9317 22.2106C28.4733 22.2063 29.3242 22.0483 29.4883 21.7235C29.6118 21.4992 29.6645 19.1662 29.6422 14.7394L22.7463 14.7693C22.7625 19.1384 22.8334 21.4522 22.9327 21.7043C22.9995 21.8837 23.3479 22.0077 23.9841 22.0846C24.1968 22.1016 24.7073 22.1444 25.4893 22.2235L25.4891 22.7063ZM38.9911 21.6936C39.0944 21.3561 39.141 19.6362 39.1268 16.5405L39.1168 12.9491C39.1026 9.59484 39.0417 7.75321 38.9405 7.4242C38.8432 7.09732 37.883 6.93495 36.0739 6.94136L36.0678 6.55893C36.9247 6.55252 38.1463 6.54611 39.7305 6.53971C41.3127 6.5333 42.4552 6.52475 43.1785 6.52475L50.275 6.4927L50.3074 12.8038H49.9165C49.6612 10.3447 49.1649 8.74239 48.4254 8.00531C47.6921 7.2661 46.3105 6.89649 44.2826 6.90717C43.8551 6.90931 43.4297 6.91144 43.0185 6.91358C42.4695 6.9499 42.1534 7.04818 42.0825 7.22764C41.963 7.48829 41.9103 9.72089 41.9245 13.9276L42.8483 13.9489C44.1286 13.9425 45.016 13.637 45.4941 13.0324C45.9701 12.4342 46.2112 11.2891 46.2031 9.61834H46.5677L46.6083 18.9632H46.2416C46.2396 17.2519 46.0066 16.0512 45.5589 15.3611C45.1173 14.6647 44.3251 14.325 43.217 14.3292L41.9306 14.3335C41.9488 18.9098 42.0116 21.3966 42.117 21.8004C42.1818 22.0568 43.1096 22.1829 44.9126 22.1743C46.8574 22.1637 48.2026 21.7684 48.9582 20.9758C49.7807 20.119 50.3662 18.4419 50.7045 15.9294H51.0712L51.0893 20.2323L51.1197 22.6721L42.7368 22.6166L36.1366 22.7191V22.2149C37.9376 22.2043 38.8857 22.0312 38.991 21.6936L38.9911 21.6936ZM60.95 21.2813C61.0938 20.8091 61.1546 18.4035 61.1404 14.0622L61.1141 9.0415C61.1018 4.34129 61.0209 1.76685 60.873 1.30537C60.7373 0.843899 59.3941 0.621707 56.8618 0.630253L56.8557 0.0918647C58.053 0.0854566 59.7587 0.0769047 61.975 0.0662275C64.1933 0.0534112 65.7998 0.0491468 66.8026 0.0470031L76.7494 0L76.79 8.83213L76.241 8.83639C75.8824 5.39029 75.1896 3.15555 74.1625 2.11509C73.1253 1.07464 71.1865 0.564022 68.3504 0.574705C67.7548 0.578969 67.1693 0.583257 66.5899 0.585378C65.816 0.634515 65.3785 0.786204 65.2711 1.03617C65.1029 1.3951 65.032 4.52074 65.0584 10.4067L66.3468 10.4302C68.1458 10.4259 69.3754 9.99435 70.048 9.15472C70.7287 8.31295 71.0508 6.71275 71.0447 4.37546L71.5552 4.37332L71.6079 17.457L71.0974 17.4614C71.0873 15.0642 70.7712 13.3806 70.1473 12.415C69.5172 11.445 68.4273 10.9664 66.8573 10.9729L65.0564 10.9771C65.0867 17.3822 65.1718 20.8625 65.3238 21.4265C65.4129 21.7919 66.7216 21.9607 69.2397 21.9543C71.9564 21.9413 73.8424 21.3817 74.906 20.2729C76.0587 19.0764 76.871 16.7242 77.3431 13.2161L77.8617 13.214L77.886 19.2345L77.9305 22.655L66.1949 22.5717L56.953 22.7191L56.955 22.0077C59.465 21.9991 60.796 21.7577 60.95 21.2813L60.95 21.2813ZM91.327 15.751C91.3312 18.0177 90.8347 19.7782 89.8157 21.0323C88.8028 22.2928 87.3847 22.9209 85.5554 22.9359C83.4668 22.9403 81.7853 22.2116 80.5171 20.7439C79.253 19.2718 78.6108 17.2977 78.5987 14.8109C78.5926 12.2301 79.2368 10.1214 80.5394 8.4763C81.838 6.83123 83.4971 6.00869 85.4825 6.00228C86.228 5.99587 86.8823 6.13261 87.4313 6.40607C87.9945 6.68595 88.5455 7.14315 89.0905 7.7905L89.3052 7.78623C89.5159 7.46577 89.7084 7.14743 89.8867 6.82696C90.0568 6.50009 90.2088 6.14543 90.3465 5.75873L90.6909 5.76087L90.7193 13.3944L90.306 13.3987C89.8056 8.74122 88.2214 6.41889 85.5757 6.43385C84.2589 6.4424 83.252 7.11538 82.5693 8.46776C81.8886 9.82014 81.5523 11.8156 81.5686 14.4605C81.5828 19.7995 83.0373 22.4637 85.918 22.4552C87.4273 22.4446 88.6327 21.8484 89.5544 20.6755C90.4701 19.4962 90.9239 17.9045 90.9158 15.8984V15.7531L91.327 15.751ZM96.1546 8.38232C95.4699 9.69197 95.1356 11.6062 95.1376 14.1251C95.1518 16.7722 95.5083 18.8232 96.2295 20.2888C96.9406 21.7502 97.9171 22.4808 99.1265 22.4765C101.772 22.4616 103.087 19.9705 103.073 15.0032C103.061 12.2301 102.71 10.0979 102.025 8.61946C101.349 7.14531 100.397 6.40609 99.1731 6.4125C97.8502 6.41464 96.8434 7.0748 96.1546 8.38232ZM96.3247 22.3078C95.4537 21.889 94.6818 21.2972 94.0275 20.5366C93.367 19.7803 92.8545 18.8873 92.4797 17.8511C92.111 16.8213 91.9246 15.7595 91.9206 14.6699C91.9186 13.418 92.1252 12.2279 92.5486 11.1042C92.9679 9.98039 93.5635 8.99975 94.3394 8.1644C95.6866 6.71374 97.3154 5.98094 99.2237 5.97666C100.739 5.96811 102.133 6.50437 103.385 7.59396C104.303 8.38873 105.012 9.38645 105.536 10.5893C106.049 11.7921 106.306 13.0718 106.308 14.437C106.326 16.7914 105.611 18.7954 104.177 20.4426C102.745 22.0941 101.011 22.9231 98.9908 22.9359C98.0913 22.9359 97.208 22.7308 96.3248 22.3078H96.3247ZM104.677 22.2886C105.923 22.0857 106.743 21.7097 107.134 21.1627C107.485 20.6842 107.661 19.7997 107.655 18.5306L107.647 17.7294L107.426 8.49992C107.134 7.84395 106.78 7.41024 106.35 7.20301C105.921 6.99791 105.258 6.89322 104.361 6.89963L104.357 6.50866L106.844 6.54925L109.314 6.5407L117.565 17.8468L117.535 11.1704C117.531 9.55098 117.332 8.45284 116.958 7.87386C116.492 7.18805 115.566 6.84836 114.18 6.85263V6.46379L117.466 6.50225L120.732 6.48517L120.734 6.82273C119.453 6.82914 118.637 7.17524 118.27 7.86746C118.015 8.3503 117.895 9.40571 117.9 11.0251L117.92 16.565C117.926 17.364 117.954 18.4857 118.005 19.9128C118.056 21.34 118.086 22.374 118.088 23H117.628C117.188 22.1839 116.733 21.4382 116.291 20.7674C116.03 20.3551 115.369 19.4193 114.306 17.9686L107.817 9.03182L108.011 17.8469C108.028 19.5176 108.255 20.6584 108.7 21.2823C109.156 21.9104 110.07 22.2116 111.433 22.2074L111.437 22.6411L108.561 22.6069C108.117 22.609 107.434 22.6325 106.504 22.6774C105.572 22.7201 104.965 22.7394 104.677 22.7415L104.677 22.2886ZM123.357 8.38024C122.674 9.6963 122.336 11.6063 122.344 14.123C122.36 16.7701 122.713 18.8275 123.43 20.2867C124.143 21.7545 125.105 22.483 126.329 22.4787C128.981 22.4617 130.295 19.9727 130.271 14.999C130.259 12.2259 129.911 10.1022 129.23 8.62166C128.545 7.13896 127.599 6.40402 126.375 6.41256C125.055 6.4147 124.042 7.077 123.357 8.38024ZM123.527 22.31C122.652 21.8869 121.886 21.2973 121.226 20.5367C120.567 19.774 120.059 18.8852 119.684 17.8512C119.315 16.8193 119.129 15.7596 119.125 14.6678C119.121 13.4202 119.328 12.228 119.749 11.1042C120.17 9.98259 120.764 8.99768 121.54 8.16019C122.891 6.7138 124.514 5.98313 126.418 5.97459C127.943 5.97032 129.329 6.5087 130.581 7.59403C131.503 8.38665 132.222 9.38651 132.728 10.5872C133.249 11.7922 133.502 13.0698 133.51 14.435C133.525 16.7936 132.805 18.7934 131.375 20.4448C129.949 22.0942 128.217 22.9274 126.197 22.9359C125.298 22.9381 124.404 22.733 123.527 22.31ZM135.425 7.40672L135.656 17.6575C135.666 19.4756 135.844 20.6827 136.199 21.2723C136.624 21.9774 137.518 22.3299 138.875 22.3256L138.871 22.6845L136.914 22.6696C136.393 22.6674 135.638 22.6995 134.645 22.7529C133.66 22.8042 132.927 22.8277 132.457 22.8319L132.459 22.4474C133.5 22.4452 134.238 22.2273 134.657 21.8022C135.079 21.377 135.285 20.6634 135.277 19.6721L135.279 19.5717L135.079 10.3421C135.075 9.05812 134.896 8.1779 134.548 7.71216C134.195 7.24 133.478 7.00285 132.392 7.0114V6.6012L134.779 6.61401L138.36 6.59693L141.869 18.1167H142.05L145.37 6.56275C145.56 6.56275 145.84 6.56275 146.205 6.55848C146.573 6.55848 146.828 6.55635 146.98 6.55635L149.018 6.54567L151.53 6.53286V6.9687C149.794 6.97937 148.891 7.10757 148.814 7.35753C148.743 7.60536 148.706 8.37449 148.711 9.65423L148.715 10.2353L148.753 18.856C148.747 19.4029 148.759 19.9904 148.761 20.625C148.761 21.2638 148.79 21.6526 148.846 21.7936C148.976 22.1183 149.888 22.2764 151.593 22.2636V22.6503L147.323 22.6204L142.941 22.6395V22.302C144.442 22.2934 145.329 22.2443 145.577 22.1439C145.824 22.0499 145.951 21.6824 145.947 21.035L145.901 7.45143L145.536 7.45569L143.346 15.0316C142.305 18.6273 141.628 21.1889 141.32 22.7208L140.52 22.7272L135.822 7.40455L135.425 7.40672ZM155.037 21.7172C155.1 21.5206 155.142 20.6981 155.167 19.2432C155.195 17.7947 155.201 15.7266 155.189 13.0432C155.169 9.73165 155.11 7.8943 154.992 7.52683C154.875 7.15722 153.929 6.97776 152.148 6.98844L152.144 6.55046C152.995 6.5462 154.066 6.5526 155.355 6.57396C156.639 6.59104 157.288 6.60387 157.31 6.60174C157.458 6.60174 158.003 6.58466 158.926 6.55901C159.858 6.5291 160.553 6.51201 161.007 6.51201V6.94784C159.21 6.9564 158.258 7.13799 158.145 7.49905C158.027 7.86652 157.98 10.1483 158.001 14.3571C158.021 18.9163 158.092 21.3668 158.217 21.7129C158.343 22.059 159.291 22.2214 161.076 22.2171V22.6978L156.641 22.6209L152.211 22.7192L152.207 22.2534C153.997 22.2491 154.937 22.0719 155.037 21.7172H155.037ZM171.864 21.0323C170.843 22.2907 169.427 22.9231 167.602 22.9359C165.511 22.9424 163.838 22.2159 162.566 20.7439C161.295 19.274 160.657 17.2935 160.645 14.8131C160.637 12.2258 161.281 10.1214 162.582 8.47422C163.882 6.83342 165.533 6.00875 167.531 6.00234C168.278 5.99807 168.927 6.13266 169.486 6.40613C170.047 6.68173 170.592 7.14107 171.143 7.78842H171.356C171.564 7.46795 171.755 7.14321 171.933 6.8206C172.101 6.498 172.263 6.14762 172.393 5.75878L172.733 5.76304L172.768 13.3945L172.356 13.3987C171.852 8.7412 170.274 6.421 167.624 6.43169C166.293 6.44024 165.3 7.11535 164.618 8.46346C163.935 9.82011 163.599 11.8134 163.613 14.4584C163.631 19.7974 165.092 22.4637 167.956 22.4509C169.474 22.4465 170.679 21.8527 171.599 20.6755C172.51 19.494 172.968 17.9066 172.962 15.8983V15.7552L173.369 15.7509C173.382 18.0199 172.883 19.776 171.864 21.0323L171.864 21.0323ZM181.479 22.3453C183.233 22.3389 184.361 22.2684 184.876 22.1488C185.38 22.0206 185.69 21.6745 185.777 21.0955C185.877 20.5208 185.901 15.2672 185.858 5.33268L185.743 0.84825L183.409 0.854658C182.111 0.995665 181.122 1.46141 180.439 2.2519C179.68 3.15349 179.143 3.46328 178.833 6.22999H178.675L178.644 0.239357L187.787 0.226541L197.122 0.185949L197.153 6.23H197.092C196.828 3.93536 196.563 3.79435 196.304 3.19187C195.615 1.59593 194.335 0.805442 192.457 0.816125L189.835 0.826797L189.793 5.89662L189.825 13.12C189.845 18.3714 189.874 21.1317 189.908 21.4116C189.945 21.6957 190.364 21.9115 191.18 22.0632C192.003 22.2192 192.979 22.2961 194.112 22.2854L194.274 22.6571L181.331 22.7191L181.479 22.3452M197.736 21.7171C197.797 21.5291 197.839 20.7023 197.862 19.2495C197.886 17.7946 197.898 15.7243 197.884 13.0473C197.868 9.74011 197.805 7.90062 197.689 7.53101C197.57 7.16355 196.624 6.98836 194.839 6.99263V6.55466C195.692 6.55466 196.766 6.56107 198.054 6.57816C199.338 6.59953 199.985 6.60593 200.001 6.6038C200.153 6.60593 200.694 6.59098 201.62 6.56107C202.555 6.53329 203.244 6.51406 203.706 6.51406L203.702 6.9499C201.909 6.96272 200.955 7.14432 200.844 7.50324C200.72 7.86644 200.681 10.1567 200.698 14.3613C200.718 18.9205 200.787 21.371 200.912 21.7171C201.028 22.059 201.988 22.2277 203.769 22.2213L203.775 22.7042L199.332 22.6272L194.908 22.7191L194.906 22.2598C196.687 22.2512 197.627 22.0718 197.736 21.7171L197.736 21.7171ZM207.317 7.38424L207.54 17.635C207.55 19.4552 207.726 20.6623 208.079 21.2563C208.506 21.9592 209.404 22.3096 210.757 22.3032V22.6663L208.788 22.6472C208.275 22.6516 207.522 22.6793 206.535 22.7327C205.542 22.7882 204.813 22.8096 204.337 22.8139V22.4272C205.392 22.4228 206.124 22.2092 206.535 21.7819C206.954 21.3546 207.165 20.6475 207.161 19.6519L207.155 19.5515L206.964 10.3198C206.96 9.04215 206.778 8.15766 206.43 7.68977C206.077 7.21761 205.362 6.98474 204.276 6.98901L204.28 6.58095L206.665 6.59162L210.238 6.57454L213.749 18.1029L213.938 18.0985L217.248 6.54238C217.444 6.54238 217.722 6.53812 218.088 6.54025C218.455 6.53811 218.721 6.53598 218.868 6.53598L220.898 6.52531L223.412 6.51676L223.408 6.94832C221.68 6.95688 220.768 7.08506 220.699 7.33716C220.62 7.58285 220.588 8.35198 220.592 9.64026L220.601 10.2171L220.629 18.8356C220.634 19.3783 220.636 19.9701 220.64 20.611C220.64 21.2412 220.677 21.6279 220.739 21.7754C220.861 22.0958 221.769 22.2539 223.482 22.2432V22.6321L219.212 22.6L214.824 22.615L214.828 22.2839C216.327 22.2774 217.209 22.2241 217.462 22.1279C217.715 22.0296 217.832 21.66 217.828 21.0148L217.776 7.43761H217.42L215.228 15.0093C214.191 18.6114 213.516 21.1751 213.204 22.7005L212.404 22.7049L207.702 7.38223L207.317 7.38424ZM226.894 21.6936C226.995 21.3582 227.044 19.6383 227.031 16.5362L227.016 12.9512C227.007 9.59696 226.947 7.74893 226.846 7.42419C226.743 7.09303 225.791 6.93707 223.975 6.94348V6.55678C224.83 6.54823 226.048 6.54397 227.63 6.53541C229.216 6.53115 230.363 6.52474 231.078 6.51833L238.187 6.49056L238.206 12.7995H237.815C237.562 10.3447 237.068 8.73812 236.332 8.00104C235.599 7.25969 234.213 6.89435 232.184 6.90503C231.754 6.90717 231.337 6.90717 230.919 6.9093C230.374 6.94562 230.058 7.0503 229.988 7.22977C229.868 7.48614 229.813 9.72088 229.829 13.9233L230.747 13.9447C232.036 13.9404 232.915 13.6327 233.395 13.0324C233.877 12.4299 234.11 11.2848 234.108 9.62047L234.469 9.6162L234.511 18.9632H234.143C234.134 17.2498 233.912 16.0512 233.462 15.3569C233.02 14.6668 232.232 14.3228 231.118 14.3271L229.834 14.3335C229.849 18.9077 229.915 21.3924 230.022 21.794C230.081 22.0568 231.015 22.1786 232.82 22.17C234.756 22.1615 236.106 21.7598 236.867 20.9694C237.69 20.119 238.267 18.4355 238.601 15.9294L238.974 15.9273L238.992 20.2323L239.024 22.6764L230.641 22.6123L224.043 22.7191L224.034 22.2106C225.835 22.2063 226.793 22.0312 226.893 21.6936L226.894 21.6936ZM239.781 22.9359L239.75 15.6399L240.093 15.6377C240.634 17.8831 241.426 19.5902 242.473 20.7716C243.521 21.9403 244.746 22.5299 246.148 22.5235C247.108 22.5214 247.874 22.2308 248.447 21.6561C249.011 21.0814 249.284 20.323 249.282 19.3936C249.278 18.1844 248.838 17.2892 247.955 16.7145C247.368 16.3321 246.191 15.9133 244.416 15.4647C242.643 15.0139 241.359 14.4349 240.563 13.7299C239.659 12.9308 239.21 11.8156 239.201 10.4013C239.203 9.09802 239.623 8.02338 240.482 7.17093C241.335 6.32276 242.439 5.89547 243.784 5.88906C245.352 5.88479 246.742 6.60691 247.959 8.06397C248.295 7.81614 248.557 7.53413 248.757 7.20298C248.952 6.87183 249.11 6.42317 249.231 5.86556L249.462 5.86342L249.485 12.0955L249.171 12.1019C248.82 10.2816 248.168 8.85874 247.197 7.84819C246.227 6.82055 245.062 6.31635 243.731 6.32489C242.741 6.32916 241.955 6.58981 241.379 7.1047C240.806 7.62172 240.516 8.31821 240.518 9.18561C240.525 10.1791 240.968 10.929 241.853 11.4204C242.524 11.8028 243.77 12.1831 245.583 12.5505C247.392 12.918 248.717 13.4799 249.535 14.2319C250.443 15.0502 250.895 16.2274 250.903 17.772C250.907 19.2654 250.455 20.4939 249.537 21.4596C248.62 22.4167 247.447 22.8974 246.01 22.9102C244.365 22.9146 242.907 22.0727 241.645 20.3764C240.897 20.8443 240.348 21.6989 240.006 22.9359H239.781" fill="white"/>
</g>
<defs>
<clipPath id="clip0_43_389">
<rect width="250" height="23" fill="white" transform="translate(0.90271)"/>
</clipPath>
</defs>
</svg>
