<svg width="103" height="27" viewBox="0 0 103 27" fill="none" xmlns="http://www.w3.org/2000/svg">
<path d="M62.6426 7.91647C60.9881 7.91647 59.6886 8.27316 58.3884 8.98516C58.3884 5.18438 58.3884 1.74029 58.5071 0.552933L50.5877 1.97762V2.69031L51.415 2.80898C52.4777 3.04632 52.834 3.63965 53.0681 5.06572C53.3063 7.91647 53.1868 23.1203 53.0681 25.615C55.1955 26.0904 57.4417 26.4471 59.6879 26.4471C65.9522 26.4471 69.7341 22.5269 69.7341 16.3501C69.7341 11.4806 66.6613 7.91647 62.6426 7.91647V7.91647ZM59.9241 25.1397C59.4511 25.1397 58.8593 25.1397 58.5058 25.0217C58.387 23.359 58.2696 16.3501 58.387 10.1739C59.0962 9.93587 59.5685 9.8172 60.1602 9.8172C62.762 9.8172 64.1803 12.9053 64.1803 16.7054C64.1796 21.4582 62.4064 25.1397 59.9241 25.1397V25.1397ZM20.8021 1.0276H0V2.09629L1.18214 2.21496C2.71783 2.45229 3.30959 3.40232 3.54506 5.65905C3.90066 9.93518 3.7819 17.6568 3.54506 21.3375C3.3089 23.5949 2.71852 24.6643 1.18214 24.7816L0 25.0203V25.9703H13.3557V25.0203L11.9374 24.7816C10.4011 24.6636 9.81 23.5949 9.57385 21.3375C9.45509 19.7928 9.33701 17.298 9.33701 14.2106L12.1736 14.3293C13.9468 14.3293 14.7734 15.7547 15.1283 17.7734H16.1923V9.34253H15.1283C14.7727 11.3619 13.9468 12.7866 12.1736 12.7866L9.33769 12.906C9.33769 8.86718 9.45577 5.0664 9.57453 2.80967H13.7107C16.9029 2.80967 18.5573 4.82838 19.7388 8.39251L20.9209 8.03582L20.8021 1.0276V1.0276Z" fill="white"/>
<path d="M27.5394 4.20011C33.4494 4.20011 36.4041 8.23891 36.4041 13.5837C36.4041 18.6912 33.0945 22.9687 27.1845 22.9687C21.2751 22.9687 18.3204 18.9292 18.3204 13.5837C18.3204 8.47624 21.6294 4.20011 27.5394 4.20011V4.20011ZM27.1845 5.38815C24.584 5.38815 23.8749 8.9516 23.8749 13.5837C23.8749 18.0972 25.057 21.7793 27.4213 21.7793C30.1378 21.7793 30.8483 18.2159 30.8483 13.5837C30.8483 9.07026 29.6675 5.38815 27.1845 5.38815ZM71.2697 13.7031C71.2697 8.83293 74.3425 4.20011 80.3706 4.20011C85.3333 4.20011 87.6982 7.88291 87.6982 12.7524H76.7061C76.5873 17.1472 78.7148 20.3546 82.9704 20.3546C84.8616 20.3546 85.8069 19.8806 86.9898 19.0486L87.4614 19.6419C86.2793 21.3046 83.6795 22.9687 80.3706 22.9687C75.0516 22.968 71.2697 19.1673 71.2697 13.7031V13.7031ZM76.7061 11.4464L82.2612 11.327C82.2612 8.9516 81.9063 5.38815 79.8976 5.38815C77.8889 5.38815 76.8235 8.71358 76.7061 11.4464V11.4464ZM101.765 5.15082C100.347 4.55611 98.4563 4.20011 96.3288 4.20011C91.9565 4.20011 89.2367 6.81284 89.2367 9.90162C89.2367 12.9904 91.244 14.2964 94.084 15.2471C97.038 16.3151 97.8659 17.1472 97.8659 18.5726C97.8659 19.9979 96.8018 21.304 94.9105 21.304C92.6657 21.304 91.0099 19.9979 89.7103 16.4338L88.8824 16.6725L89.0012 21.8987C90.4195 22.492 93.0192 22.968 95.2654 22.968C99.8753 22.968 102.831 20.5913 102.831 16.9098C102.831 14.4151 101.53 12.9904 98.457 11.8017C95.1467 10.4956 93.9659 9.66428 93.9659 8.11955C93.9659 6.57551 95.0313 5.50613 96.4496 5.50613C98.5757 5.50613 99.994 6.81284 101.059 10.0203L101.886 9.78295L101.765 5.15082V5.15082ZM51.7685 4.67546C49.7598 3.48879 46.2134 4.08144 44.3228 8.35826L44.4402 4.20079L36.5222 5.74484V6.45753L37.3494 6.57619C38.4141 6.69555 38.8858 7.28888 39.0045 8.83361C39.2407 11.6844 39.1226 16.6739 39.0045 19.1679C38.8858 20.592 38.4141 21.3046 37.3494 21.424L36.5222 21.5434V22.4934H47.5136V21.5434L46.0953 21.424C44.9139 21.3046 44.5589 20.592 44.4402 19.1679C44.204 16.9105 44.204 12.3971 44.3228 9.5463C44.9132 8.71426 47.5136 8.00226 49.8772 9.5463L51.7685 4.67546V4.67546Z" fill="white"/>
</svg>
