<svg width="82" height="27" viewBox="0 0 82 27" fill="none" xmlns="http://www.w3.org/2000/svg">
<path fill-rule="evenodd" clip-rule="evenodd" d="M69.0567 0.910127H66.137V10.9289L63.1732 0.910127H60.2534V19.2542H63.1732V10.27L65.8266 19.2542H69.0567V0.910127ZM3.83842 0.910127H0.830597V19.2542H3.83842V11.3985H6.61735V8.2947H3.83842V4.01467H8.16674V0.910127H3.83842ZM16.8769 14.7745C16.8769 15.4232 16.3634 15.9794 15.6643 15.9794C15.5052 15.981 15.3474 15.9511 15.2 15.8912C15.0526 15.8314 14.9186 15.7428 14.8057 15.6307C14.6928 15.5186 14.6033 15.3852 14.5424 15.2382C14.4815 15.0913 14.4504 14.9336 14.4509 14.7745V4.67139C14.4509 4.02274 14.9644 3.46655 15.6643 3.46655C16.3172 3.46655 16.8769 3.97651 16.8769 4.67139V14.7745ZM15.6173 0.407501C13.2844 0.454462 11.3257 2.35417 11.3257 4.67139V14.7745C11.3257 17.138 13.2382 19.0377 15.6173 19.0377C17.9964 19.0377 19.909 17.138 19.909 14.7745V4.67139C19.909 2.30868 17.9964 0.408235 15.6173 0.408235V0.407501ZM35.8622 3.74465H38.6139V18.7596H41.6929V3.74465H44.3978V0.68633H35.8622V3.74465ZM53.4476 14.7745C53.4476 15.4232 52.9341 15.9794 52.2342 15.9794C52.0752 15.981 51.9174 15.9511 51.7701 15.8912C51.6227 15.8313 51.4888 15.7428 51.3759 15.6307C51.2631 15.5186 51.1737 15.3852 51.1128 15.2382C51.052 15.0912 51.021 14.9336 51.0216 14.7745V0.68633H47.9433V14.7745C47.9433 17.138 49.8566 19.0377 52.235 19.0377C54.6141 19.0377 56.5266 17.138 56.5266 14.7745V0.68633H53.4484V14.7745H53.4476ZM81.2949 3.74465V0.68633H73.7849V18.7596H81.2949V15.7013H76.8639V11.0206H79.7096V7.9623H76.8631V3.74465H81.2949ZM32.4567 7.73044V4.76457C32.412 3.66833 31.9454 2.6318 31.1543 1.87174C30.3632 1.11168 29.309 0.686935 28.212 0.68633H23.9673V18.7596H27.0456V3.74465H28.212C28.9112 3.74465 29.4247 4.30084 29.4247 4.94948V7.77666C29.4247 9.81578 27.4659 10.1863 27.4659 10.1863L29.7511 18.7596H32.9233L30.7767 11.623C31.8493 10.7888 32.456 9.53769 32.456 7.73044M79.3824 24.877L79.7088 22.6992L79.7558 21.8649H79.802L79.8489 22.6992L80.1284 24.877H79.3824ZM79.2892 20.5668L78.2167 26.5918H79.1029L79.2422 25.6658H80.2693L80.4087 26.5925H81.2949L80.2224 20.5683H79.2892V20.5668ZM76.4905 26.5918H77.3767V20.5676H76.4905V26.5918ZM74.5779 25.6188C74.5779 25.7112 74.4385 25.8037 74.3446 25.8037H73.5978V21.3087H74.3446C74.4848 21.3087 74.5779 21.4481 74.5779 21.5406V25.6188ZM75.1377 20.8457C74.9976 20.66 74.7635 20.5668 74.531 20.5668H72.7116V26.5918H74.531C74.7643 26.5918 74.9976 26.4986 75.1377 26.3599C75.324 26.175 75.4179 25.9431 75.4179 25.7112V21.4011C75.4206 21.2926 75.3964 21.1851 75.3476 21.0882C75.2987 20.9913 75.2266 20.908 75.1377 20.8457ZM70.7991 22.4211L70.9399 24.877H70.893L70.6597 23.9965L69.5402 20.5668H68.7002V26.5918H69.5402V24.739L69.4001 22.2824H69.447L69.6803 23.1629L70.7991 26.5918H71.6398V20.5676H70.7991V22.4211ZM66.7415 26.5918H67.6269V20.5676H66.7415V26.5918Z" fill="white"/>
</svg>
