<svg width="111" height="27" viewBox="0 0 111 27" fill="none" xmlns="http://www.w3.org/2000/svg">
<path d="M45.3363 26.3256H35.0059V22.8453H36.0371C36.4974 22.8453 36.6447 22.5875 36.6447 22.164V13.4356C36.6447 13.012 36.479 12.7542 36.0371 12.7542H35.0059V9.16341H44.1578V11.7598C45.2627 9.73426 47.012 8.79513 49.4796 8.79513C52.831 8.79513 54.0279 10.0841 54.4146 12.0729C55.4458 9.7895 57.2689 8.79513 59.8653 8.79513C64.119 8.79513 64.9292 10.8575 64.9292 13.9327V22.1824C64.9292 22.6059 65.1318 22.8637 65.6474 22.8637H66.5313V26.344H56.3666V22.8453H56.7901C57.2136 22.8453 57.3978 22.5875 57.3978 22.164V14.7061C57.3978 13.2882 57.0847 12.8463 56.0903 12.8463C54.7829 12.8463 54.5435 13.9143 54.5435 15.59V22.1271C54.5435 22.5875 54.7461 22.8453 55.1512 22.8453H55.7036V26.3256H45.9624V22.8453H46.386C46.8095 22.8453 46.9936 22.5875 46.9936 22.164V14.7061C46.9936 13.2882 46.6806 12.8463 45.6862 12.8463C44.3788 12.8463 44.1394 13.9143 44.1394 15.59V22.1271C44.1394 22.5875 44.3051 22.8453 44.7471 22.8453H45.2995V26.3256H45.3363ZM72.4607 0.508648C74.5416 0.508648 76.2357 2.22119 76.2357 4.32043C76.2357 6.38284 74.5416 8.09538 72.4607 8.09538C70.4167 8.09538 68.7226 6.38284 68.7226 4.32043C68.7226 2.22119 70.4167 0.508648 72.4607 0.508648ZM68.7594 13.4171C68.7594 12.9936 68.5937 12.7358 68.1518 12.7358H67.1206V9.145H76.2725V22.1271C76.2725 22.5875 76.4382 22.8453 76.8802 22.8453H77.8562V26.3256H67.1021V22.8453H68.1334C68.5937 22.8453 68.741 22.5875 68.741 22.164V13.4171H68.7594ZM88.7575 26.3256H78.427V22.8453H79.4582C79.9186 22.8453 80.0659 22.5875 80.0659 22.164V13.4356C80.0659 13.012 79.9001 12.7542 79.4582 12.7542H78.427V9.16341H87.5789V11.7967C88.6102 9.73426 90.3411 8.81354 93.1585 8.81354C97.0808 8.81354 98.0936 10.876 98.0936 13.9512V22.2008C98.0936 22.6243 98.2593 22.8821 98.7749 22.8821H99.6956V26.3625H89.402V22.8453H89.9544C90.3779 22.8453 90.5621 22.5875 90.5621 22.164V14.7061C90.5621 13.2882 90.2122 12.8463 89.2547 12.8463C87.9472 12.8463 87.5605 13.9143 87.5605 15.59V22.1271C87.5605 22.5875 87.7263 22.8453 88.1682 22.8453H88.7206L88.7575 26.3256ZM98.6276 9.145L100.451 9.03451L100.745 5.11225H107.687V9.10817H110.597V12.6437H107.669V20.1016C107.669 22.1271 108.056 22.7901 110.265 22.7901H110.763V26.2704C109.308 26.4361 107.78 26.4914 106.325 26.4914C102.31 26.4914 100.469 25.276 100.193 21.8325V12.6806H98.646L98.6276 9.145Z" fill="white"/>
<path d="M4.45654 19.0704C4.45654 19.7149 4.45654 20.1937 4.51179 20.5804C4.62227 21.0407 4.88008 21.2617 5.15629 21.409C5.37726 21.5195 5.61665 21.5563 5.83762 21.5747V21.7957H0.294891V21.5747C0.515864 21.5563 0.79208 21.5011 0.939395 21.409C1.25244 21.2617 1.49183 21.0407 1.56548 20.6724C1.67597 20.2305 1.67597 19.7701 1.67597 19.0704V7.61663C1.67597 7.24834 1.67597 6.40128 1.62073 6.06982C1.51024 5.71995 1.39976 5.49897 1.1972 5.35166C0.95781 5.18593 0.75525 5.1491 0.368548 5.13069V4.92813H4.32764C4.43813 4.92813 4.49337 4.94654 4.49337 5.13069C4.49337 5.62788 4.47496 6.21713 4.47496 7.13785V19.0704H4.45654ZM7.95528 7.34041C7.95528 6.43811 8.59978 5.73836 9.55733 5.73836C10.5149 5.73836 11.1594 6.45652 11.1594 7.34041C11.1594 8.2243 10.5149 8.94246 9.55733 8.94246C8.59978 8.94246 7.95528 8.2243 7.95528 7.34041ZM10.9937 19.1625C10.9937 19.7701 11.0121 20.2305 11.1041 20.5619C11.2146 21.0591 11.4356 21.2433 11.7486 21.3906C11.9144 21.5011 12.1722 21.5379 12.4116 21.5563V21.7773H6.86883V21.5563C7.0898 21.5379 7.36602 21.4827 7.53175 21.3906C7.82638 21.2433 8.06576 21.0039 8.13942 20.6724C8.24991 20.2857 8.24991 19.807 8.24991 19.1256V13.3987C8.24991 13.012 8.24991 12.1282 8.19467 11.8335C8.12101 11.5021 7.97369 11.2627 7.75272 11.1522C7.55016 11.0049 7.32919 10.9312 6.88724 10.9312V10.7102H10.8648C10.9752 10.7102 11.0305 10.7287 11.0305 10.876C11.0121 11.3916 10.9752 11.944 10.9752 12.8831L10.9937 19.1625ZM23.0919 11.1154C22.8709 11.2627 22.6684 11.41 22.5395 11.723C22.3369 12.0177 22.0423 12.6622 21.7661 13.5092L18.7829 21.8694H17.4571L14.6949 14.0433C14.4003 13.2514 14.1057 12.4412 13.9768 12.1097C13.7558 11.6126 13.5901 11.3363 13.3139 11.1522C13.0745 10.9865 12.7983 10.9312 12.5405 10.876V10.6734H18.3594V10.876C18.028 10.8944 17.6965 10.9865 17.4755 11.0785C17.273 11.189 17.1625 11.5021 17.1625 11.8151C17.1625 12.2018 17.3098 12.699 17.586 13.5461L19.2985 18.9783H19.3538L21.2321 13.6381C21.5451 12.7542 21.6556 12.2571 21.6556 11.8888C21.6556 11.4284 21.453 11.2074 21.2321 11.0601C21.0111 10.9496 20.7717 10.8944 20.5139 10.8576V10.655H23.7364V10.8576C23.5339 10.9312 23.2945 10.9865 23.0919 11.1154ZM26.6643 15.2034H30.3472C30.9733 15.2034 31.1574 15.0376 31.1574 14.1353C31.1574 12.7911 30.9364 11.8888 30.5129 11.3916C30.1815 11.0417 29.7947 10.876 29.1502 10.876C28.5978 10.876 28.1006 11.0785 27.7139 11.4837C27.1799 12.0361 26.7932 13.4724 26.6643 15.2034ZM29.2239 22.0351C27.5666 22.0351 26.2592 21.5195 25.3201 20.5988C24.1784 19.4939 23.6812 17.9655 23.6812 16.3082C23.6812 12.8279 26.1487 10.4524 29.1318 10.4524C32.3728 10.4524 33.7907 12.7174 33.7907 14.6878C33.7907 14.964 33.7907 15.3507 33.7354 15.6269H26.6275V16.1425C26.6275 18.2417 26.9958 19.6965 27.6034 20.3778C28.1375 20.9671 28.8924 21.2617 29.7579 21.2617C31.9124 21.2617 32.9436 19.7517 33.3856 18.1865L33.8091 18.297C33.2198 20.4515 31.7835 22.0351 29.2239 22.0351Z" fill="white"/>
</svg>
