<svg width="119" height="27" viewBox="0 0 119 27" fill="none" xmlns="http://www.w3.org/2000/svg">
<g style="mix-blend-mode:luminosity">
<path d="M58.5924 1.18985C43.1553 9.69596 27.7183 -4.73686 0.762634 3.08009V25.4283C27.7183 17.6114 43.1553 32.0442 58.5924 23.5578V1.18985Z" fill="#4AA435"/>
</g>
<g style="mix-blend-mode:luminosity">
<path d="M118.903 1.18981H58.592V23.479H118.903V1.18981Z" fill="#005DA0"/>
</g>
<g style="mix-blend-mode:luminosity">
<path d="M7.63429 17.513H5.36993V8.84933H7.53584V9.91259C7.75243 9.51879 8.08716 9.20375 8.55972 8.96747C9.03229 8.73119 9.50485 8.61305 9.9971 8.61305C11.2179 8.61305 12.0449 9.08561 12.478 10.0504C13.0884 9.08561 13.9745 8.61305 15.1362 8.61305C15.9829 8.61305 16.7114 8.88871 17.3021 9.44003C17.8928 9.99135 18.1882 10.8183 18.1882 11.9013V17.513H15.9829V12.3738C15.9829 11.8816 15.8647 11.4878 15.6088 11.1924C15.3725 10.8971 14.9984 10.7396 14.4864 10.7396C14.0139 10.7396 13.6398 10.8971 13.3641 11.2318C13.0884 11.5666 12.9309 11.9604 12.9309 12.4526V17.513H10.6863V12.3738C10.6863 11.8816 10.5681 11.4878 10.3121 11.1924C10.0562 10.8971 9.68206 10.7396 9.2095 10.7396C8.73694 10.7396 8.34313 10.8971 8.06747 11.2318C7.77212 11.5469 7.63429 11.9604 7.63429 12.4526" fill="white"/>
</g>
<g style="mix-blend-mode:luminosity">
<path d="M21.0829 9.89293C21.9099 9.02657 22.9732 8.59339 24.2333 8.59339C25.4935 8.59339 26.5371 9.02657 27.3837 9.89293C28.2107 10.7593 28.6439 11.8619 28.6439 13.1812C28.6439 14.5004 28.2304 15.6031 27.3837 16.4694C26.5371 17.3358 25.4935 17.769 24.2333 17.769C22.9732 17.769 21.9296 17.3358 21.0829 16.4694C20.2559 15.6031 19.8228 14.5004 19.8228 13.1812C19.8424 11.8619 20.2559 10.7593 21.0829 9.89293ZM22.7369 14.9927C23.1504 15.4258 23.6623 15.6424 24.253 15.6424C24.8437 15.6424 25.3557 15.4258 25.7692 14.9927C26.1826 14.5595 26.3992 13.9491 26.3992 13.1812C26.3992 12.4133 26.1826 11.8029 25.7692 11.3697C25.3557 10.9365 24.8437 10.7199 24.253 10.7199C23.6623 10.7199 23.1504 10.9365 22.7369 11.3697C22.3234 11.8029 22.1068 12.4133 22.1068 13.1812C22.1068 13.9688 22.3037 14.5595 22.7369 14.9927Z" fill="white"/>
</g>
<g style="mix-blend-mode:luminosity">
<path d="M32.7 12.5314V17.513H30.4356V8.84933H32.6409V9.91259C32.8772 9.4991 33.2119 9.16437 33.6648 8.94778C34.098 8.73119 34.5705 8.61305 35.0628 8.61305C36.0473 8.61305 36.8152 8.92809 37.3271 9.57786C37.8391 10.2079 38.095 11.0349 38.095 12.0588V17.513H35.811V12.4526C35.811 11.9407 35.6732 11.5272 35.4369 11.2121C35.1809 10.8971 34.7871 10.7396 34.2752 10.7396C33.8026 10.7396 33.4088 10.9168 33.1331 11.2515C32.8378 11.5863 32.7 12.0194 32.7 12.5314Z" fill="white"/>
</g>
<g style="mix-blend-mode:luminosity">
<path d="M46.01 14.461L47.9003 15.032C47.664 15.8393 47.2308 16.4891 46.5614 17.001C45.8919 17.513 45.0649 17.7689 44.0804 17.7689C42.8793 17.7689 41.8554 17.3554 41.0088 16.5088C40.1621 15.6621 39.7486 14.5398 39.7486 13.1418C39.7486 11.8028 40.1621 10.7002 40.9694 9.85352C41.7964 9.00685 42.7612 8.57367 43.8638 8.57367C45.1634 8.57367 46.1676 8.96747 46.9158 9.77476C47.6443 10.5821 48.0184 11.665 48.0184 13.063V13.378V13.6537L47.9987 13.7718H41.9933C42.013 14.3429 42.2295 14.8154 42.643 15.1895C43.0565 15.5636 43.5488 15.7605 44.1198 15.7605C45.0649 15.7802 45.7147 15.3274 46.01 14.461ZM42.0326 12.1966H45.7934C45.7738 11.7241 45.5965 11.3106 45.3012 10.9759C44.9862 10.6411 44.5333 10.4836 43.9229 10.4836C43.3716 10.4836 42.9384 10.6608 42.584 11.0152C42.2492 11.3697 42.072 11.7635 42.0326 12.1966Z" fill="white"/>
</g>
<g style="mix-blend-mode:luminosity">
<path d="M52.6066 20.939H50.1847L52.1734 16.4299L48.6095 8.84927H51.1495L53.3745 13.9293L55.4419 8.84927H57.8638" fill="white"/>
</g>
<g style="mix-blend-mode:luminosity">
<path d="M63.7316 10.7789C63.1212 10.7789 62.6289 10.9955 62.2154 11.4287C61.802 11.8619 61.6051 12.4526 61.6051 13.2008C61.6051 13.949 61.8216 14.5397 62.2351 14.9926C62.6486 15.4258 63.1606 15.6621 63.771 15.6621C64.3026 15.6621 64.7358 15.5242 65.0508 15.2289C65.3659 14.9335 65.5824 14.5988 65.7006 14.205L67.6893 14.8942C67.4924 15.7014 67.0395 16.3709 66.3504 16.9616C65.6612 17.5326 64.7948 17.828 63.7513 17.828C62.4911 17.828 61.4475 17.3948 60.6009 16.5087C59.7542 15.6424 59.3407 14.5397 59.3407 13.2205C59.3407 11.9013 59.7542 10.7986 60.6009 9.93225C61.4278 9.06589 62.4714 8.63271 63.6922 8.63271C64.7555 8.63271 65.6415 8.92806 66.311 9.47938C67.0001 10.0504 67.4333 10.7395 67.6302 11.5468L65.6021 12.2557C65.3265 11.2712 64.6964 10.7789 63.7316 10.7789Z" fill="white"/>
</g>
<g style="mix-blend-mode:luminosity">
<path d="M69.8744 9.91259C70.7014 9.04623 71.7647 8.61305 73.0248 8.61305C74.285 8.61305 75.3286 9.04623 76.1752 9.91259C77.0219 10.779 77.4354 11.8816 77.4354 13.2008C77.4354 14.5201 77.0219 15.6227 76.1752 16.4891C75.3483 17.3554 74.285 17.7886 73.0248 17.7886C71.7647 17.7886 70.7211 17.3554 69.8744 16.4891C69.0474 15.6227 68.6143 14.5201 68.6143 13.2008C68.6339 11.8816 69.0474 10.779 69.8744 9.91259ZM71.5087 15.032C71.9222 15.4652 72.4341 15.6818 73.0248 15.6818C73.6155 15.6818 74.1275 15.4652 74.541 15.032C74.9545 14.5988 75.171 13.9884 75.171 13.2205C75.171 12.4526 74.9545 11.8422 74.541 11.409C74.1275 10.9759 73.6155 10.7593 73.0248 10.7593C72.4341 10.7593 71.9222 10.9759 71.5087 11.409C71.0952 11.8422 70.8786 12.4526 70.8786 13.2205C70.8983 13.9884 71.0952 14.5988 71.5087 15.032Z" fill="white"/>
</g>
<g style="mix-blend-mode:luminosity">
<path d="M81.4917 12.551V17.5326H79.2274V8.86899H81.4326V9.93225C81.6689 9.51876 82.0037 9.18403 82.4565 8.96744C82.8897 8.75085 83.3623 8.63271 83.8545 8.63271C84.839 8.63271 85.6069 8.94775 86.1189 9.59752C86.6308 10.2473 86.8868 11.0546 86.8868 12.0785V17.5326H84.6224V12.4723C84.6224 11.9603 84.4846 11.5468 84.2483 11.2318C83.9924 10.9168 83.5986 10.7592 83.0866 10.7592C82.614 10.7592 82.2202 10.9364 81.9446 11.2712C81.6295 11.6059 81.4917 12.0391 81.4917 12.551Z" fill="white"/>
</g>
<g style="mix-blend-mode:luminosity">
<path d="M91.9669 6.28954V8.86894H93.6602V10.9364H91.9669V14.5594C91.9669 14.9138 92.0457 15.1895 92.2032 15.3273C92.3607 15.4848 92.6167 15.5636 92.9514 15.5636C93.2664 15.5636 93.483 15.5439 93.6405 15.4848V17.4144C93.3058 17.5523 92.8923 17.631 92.3607 17.631C91.5337 17.631 90.9036 17.3947 90.4114 16.9222C89.9388 16.4496 89.7025 15.7998 89.7025 14.9532V10.9167H88.1864V8.84925H88.6196C89.0331 8.84925 89.3678 8.73111 89.5844 8.47514C89.801 8.21917 89.9191 7.88444 89.9191 7.47095V6.25016" fill="white"/>
</g>
<g style="mix-blend-mode:luminosity">
<path d="M100.591 8.8493V11.2121C100.355 11.1727 100.139 11.1333 99.9023 11.1333C99.2525 11.1333 98.7406 11.3302 98.3271 11.7044C97.9333 12.0785 97.7364 12.7086 97.7364 13.5749V17.5326H95.472V8.86899H97.6773V10.1488C98.0908 9.2431 98.8784 8.79023 100.06 8.79023C100.178 8.80992 100.355 8.82961 100.591 8.8493Z" fill="white"/>
</g>
<g style="mix-blend-mode:luminosity">
<path d="M102.718 9.91259C103.545 9.04623 104.608 8.61305 105.868 8.61305C107.128 8.61305 108.172 9.04623 109.018 9.91259C109.845 10.779 110.279 11.8816 110.279 13.2008C110.279 14.5201 109.865 15.6227 109.018 16.4891C108.191 17.3554 107.128 17.7886 105.868 17.7886C104.608 17.7886 103.564 17.3554 102.718 16.4891C101.891 15.6227 101.457 14.5201 101.457 13.2008C101.477 11.8816 101.891 10.779 102.718 9.91259ZM104.372 15.032C104.785 15.4652 105.297 15.6818 105.888 15.6818C106.478 15.6818 106.971 15.4652 107.404 15.032C107.817 14.5988 108.034 13.9884 108.034 13.2205C108.034 12.4526 107.817 11.8422 107.404 11.409C106.99 10.9759 106.478 10.7593 105.888 10.7593C105.297 10.7593 104.785 10.9759 104.372 11.409C103.958 11.8422 103.741 12.4526 103.741 13.2205C103.741 13.9884 103.938 14.5988 104.372 15.032Z" fill="white"/>
</g>
<g style="mix-blend-mode:luminosity">
<path d="M114.335 4.79309H112.07V17.5326H114.335V4.79309Z" fill="white"/>
</g>
</svg>
