<svg width="32" height="32" viewBox="0 0 32 32" fill="none" xmlns="http://www.w3.org/2000/svg">
<path d="M14.5455 11.6364H20.3636C20.7494 11.6364 21.1194 11.4831 21.3922 11.2103C21.6649 10.9376 21.8182 10.5676 21.8182 10.1818C21.8182 9.79605 21.6649 9.42608 21.3922 9.1533C21.1194 8.88052 20.7494 8.72727 20.3636 8.72727H17.4545V7.27273C17.4545 6.88696 17.3013 6.51699 17.0285 6.24421C16.7557 5.97143 16.3858 5.81818 16 5.81818C15.6142 5.81818 15.2443 5.97143 14.9715 6.24421C14.6987 6.51699 14.5455 6.88696 14.5455 7.27273V8.72727C13.3881 8.72727 12.2782 9.18701 11.4599 10.0054C10.6416 10.8237 10.1818 11.9336 10.1818 13.0909C10.1818 14.2482 10.6416 15.3581 11.4599 16.1765C12.2782 16.9948 13.3881 17.4545 14.5455 17.4545H17.4545C17.8403 17.4545 18.2103 17.6078 18.4831 17.8806C18.7558 18.1534 18.9091 18.5233 18.9091 18.9091C18.9091 19.2949 18.7558 19.6648 18.4831 19.9376C18.2103 20.2104 17.8403 20.3636 17.4545 20.3636H11.6364C11.2506 20.3636 10.8806 20.5169 10.6078 20.7897C10.3351 21.0624 10.1818 21.4324 10.1818 21.8182C10.1818 22.2039 10.3351 22.5739 10.6078 22.8467C10.8806 23.1195 11.2506 23.2727 11.6364 23.2727H14.5455V24.7273C14.5455 25.113 14.6987 25.483 14.9715 25.7558C15.2443 26.0286 15.6142 26.1818 16 26.1818C16.3858 26.1818 16.7557 26.0286 17.0285 25.7558C17.3013 25.483 17.4545 25.113 17.4545 24.7273V23.2727C18.6119 23.2727 19.7218 22.813 20.5401 21.9946C21.3584 21.1763 21.8182 20.0664 21.8182 18.9091C21.8182 17.7518 21.3584 16.6419 20.5401 15.8235C19.7218 15.0052 18.6119 14.5455 17.4545 14.5455H14.5455C14.1597 14.5455 13.7897 14.3922 13.5169 14.1194C13.2442 13.8466 13.0909 13.4767 13.0909 13.0909C13.0909 12.7051 13.2442 12.3352 13.5169 12.0624C13.7897 11.7896 14.1597 11.6364 14.5455 11.6364ZM16 0C12.8355 0 9.74207 0.938383 7.11088 2.69649C4.4797 4.45459 2.42894 6.95345 1.21793 9.87706C0.0069326 12.8007 -0.309921 16.0177 0.307443 19.1214C0.924806 22.2251 2.44866 25.0761 4.6863 27.3137C6.92394 29.5513 9.77486 31.0752 12.8786 31.6926C15.9823 32.3099 19.1993 31.9931 22.1229 30.7821C25.0466 29.5711 27.5454 27.5203 29.3035 24.8891C31.0616 22.2579 32 19.1645 32 16C32 11.7565 30.3143 7.68687 27.3137 4.68629C24.3131 1.68571 20.2435 0 16 0ZM16 29.0909C13.4109 29.0909 10.8799 28.3231 8.72709 26.8847C6.5743 25.4462 4.8964 23.4017 3.90558 21.0097C2.91476 18.6176 2.65552 15.9855 3.16064 13.4461C3.66575 10.9067 4.91254 8.57412 6.74333 6.74333C8.57413 4.91253 10.9067 3.66574 13.4461 3.16063C15.9855 2.65551 18.6176 2.91476 21.0097 3.90558C23.4017 4.8964 25.4462 6.57429 26.8847 8.72708C28.3231 10.8799 29.0909 13.4109 29.0909 16C29.0909 19.4719 27.7117 22.8016 25.2567 25.2567C22.8016 27.7117 19.4719 29.0909 16 29.0909Z" fill="black"/>
</svg>
