<svg width="13" height="8" viewBox="0 0 13 8" fill="none" xmlns="http://www.w3.org/2000/svg">
<path d="M7.37665 7.62117L12.6333 2.19101C12.7495 2.07195 12.8417 1.93031 12.9047 1.77424C12.9676 1.61818 13 1.45078 13 1.28171C13 1.11265 12.9676 0.945252 12.9047 0.789187C12.8417 0.633122 12.7495 0.491475 12.6333 0.372418C12.401 0.133886 12.0868 -3.99186e-08 11.7592 -5.42353e-08C11.4317 -6.85521e-08 11.1175 0.133886 10.8852 0.372417L6.49642 4.90609L2.10763 0.372417C1.87534 0.133886 1.56112 -5.00009e-07 1.23359 -5.14326e-07C0.906062 -5.28643e-07 0.59184 0.133886 0.359554 0.372417C0.24465 0.492086 0.153745 0.634008 0.0920477 0.790045C0.0303506 0.946082 -0.000921298 1.11316 2.18785e-05 1.28171C-0.000921313 1.45026 0.0303506 1.61734 0.0920476 1.77338C0.153745 1.92942 0.24465 2.07134 0.359554 2.19101L5.61618 7.62117C5.73143 7.74121 5.86855 7.83649 6.01963 7.90151C6.17071 7.96653 6.33275 8 6.49642 8C6.66008 8 6.82213 7.96653 6.9732 7.90151C7.12428 7.83649 7.2614 7.74121 7.37665 7.62117Z" fill="#1F2937"/>
</svg>
