<svg width="24" height="24" viewBox="0 0 24 24" fill="none" xmlns="http://www.w3.org/2000/svg">
<path d="M1.53748 8L9.41652 13.26C9.74472 13.4793 10.1304 13.5963 10.525 13.5963C10.9195 13.5963 11.3052 13.4793 11.6334 13.26L19.5125 8M3.5347 19H17.5153C18.045 19 18.553 18.7893 18.9275 18.4142C19.3021 18.0391 19.5125 17.5304 19.5125 17V7C19.5125 6.46957 19.3021 5.96086 18.9275 5.58579C18.553 5.21071 18.045 5 17.5153 5H3.5347C3.005 5 2.497 5.21071 2.12245 5.58579C1.7479 5.96086 1.53748 6.46957 1.53748 7V17C1.53748 17.5304 1.7479 18.0391 2.12245 18.4142C2.497 18.7893 3.005 19 3.5347 19Z" stroke="white" stroke-width="2" stroke-linecap="round" stroke-linejoin="round"/>
</svg>
