<svg width="24" height="28" viewBox="0 0 24 28" fill="none" xmlns="http://www.w3.org/2000/svg">
<path d="M9.33333 8.66669H17.3333C17.687 8.66669 18.0261 8.52621 18.2761 8.27616C18.5262 8.02611 18.6667 7.68698 18.6667 7.33335C18.6667 6.97973 18.5262 6.64059 18.2761 6.39054C18.0261 6.1405 17.687 6.00002 17.3333 6.00002H9.33333C8.97971 6.00002 8.64057 6.1405 8.39052 6.39054C8.14048 6.64059 8 6.97973 8 7.33335C8 7.68698 8.14048 8.02611 8.39052 8.27616C8.64057 8.52621 8.97971 8.66669 9.33333 8.66669ZM6.66667 14H17.3333C17.687 14 18.0261 13.8595 18.2761 13.6095C18.5262 13.3594 18.6667 13.0203 18.6667 12.6667C18.6667 12.3131 18.5262 11.9739 18.2761 11.7239C18.0261 11.4738 17.687 11.3334 17.3333 11.3334H6.66667C6.31305 11.3334 5.97391 11.4738 5.72386 11.7239C5.47381 11.9739 5.33333 12.3131 5.33333 12.6667C5.33333 13.0203 5.47381 13.3594 5.72386 13.6095C5.97391 13.8595 6.31305 14 6.66667 14ZM6.66667 19.3334H17.3333C17.687 19.3334 18.0261 19.1929 18.2761 18.9428C18.5262 18.6928 18.6667 18.3536 18.6667 18C18.6667 17.6464 18.5262 17.3073 18.2761 17.0572C18.0261 16.8072 17.687 16.6667 17.3333 16.6667H6.66667C6.31305 16.6667 5.97391 16.8072 5.72386 17.0572C5.47381 17.3073 5.33333 17.6464 5.33333 18C5.33333 18.3536 5.47381 18.6928 5.72386 18.9428C5.97391 19.1929 6.31305 19.3334 6.66667 19.3334ZM22.6667 0.666687H1.33333C0.979711 0.666687 0.640573 0.807163 0.390524 1.05721C0.140476 1.30726 0 1.6464 0 2.00002V26C0 26.2476 0.0689529 26.4904 0.199132 26.701C0.329312 26.9116 0.515574 27.0819 0.737049 27.1926C0.958523 27.3033 1.20646 27.3502 1.45307 27.328C1.69969 27.3057 1.93524 27.2153 2.13333 27.0667L4.89333 25L7.64 27.0667C7.87079 27.2398 8.15151 27.3334 8.44 27.3334C8.72849 27.3334 9.00921 27.2398 9.24 27.0667L12 25L14.76 27.0667C14.9908 27.2398 15.2715 27.3334 15.56 27.3334C15.8485 27.3334 16.1292 27.2398 16.36 27.0667L19.1067 25L21.8667 27.0667C22.0657 27.215 22.3022 27.3049 22.5496 27.3261C22.7969 27.3473 23.0453 27.299 23.2667 27.1867C23.4866 27.0759 23.6715 26.9064 23.8009 26.6969C23.9303 26.4875 23.9993 26.2462 24 26V2.00002C24 1.6464 23.8595 1.30726 23.6095 1.05721C23.3594 0.807163 23.0203 0.666687 22.6667 0.666687ZM21.3333 23.3334L19.9067 22.2667C19.6759 22.0936 19.3952 22 19.1067 22C18.8182 22 18.5375 22.0936 18.3067 22.2667L15.56 24.3334L12.8 22.2667C12.5692 22.0936 12.2885 22 12 22C11.7115 22 11.4308 22.0936 11.2 22.2667L8.44 24.3334L5.69333 22.2667C5.46254 22.0936 5.18183 22 4.89333 22C4.60484 22 4.32413 22.0936 4.09333 22.2667L2.66667 23.3334V3.33335H21.3333V23.3334Z" fill="black"/>
</svg>
