<svg width="26" height="25" viewBox="0 0 26 25" fill="none" xmlns="http://www.w3.org/2000/svg">
<path d="M25.5 13.0725V21.8225C25.5 22.4856 25.2366 23.1214 24.7678 23.5903C24.2989 24.0591 23.663 24.3225 23 24.3225H20.5C19.837 24.3225 19.2011 24.0591 18.7322 23.5903C18.2634 23.1214 18 22.4856 18 21.8225V15.5725C18 14.9095 18.2634 14.2736 18.7322 13.8047C19.2011 13.3359 19.837 13.0725 20.5 13.0725H23C23 10.4203 21.9464 7.87681 20.0711 6.00144C18.1957 4.12608 15.6522 3.07251 13 3.07251C10.3478 3.07251 7.8043 4.12608 5.92893 6.00144C4.05357 7.87681 3 10.4203 3 13.0725H5.5C6.16304 13.0725 6.79893 13.3359 7.26777 13.8047C7.73661 14.2736 8 14.9095 8 15.5725V21.8225C8 22.4856 7.73661 23.1214 7.26777 23.5903C6.79893 24.0591 6.16304 24.3225 5.5 24.3225H3C2.33696 24.3225 1.70107 24.0591 1.23223 23.5903C0.763392 23.1214 0.5 22.4856 0.5 21.8225V13.0725C0.5 6.16876 6.09625 0.57251 13 0.57251C19.9037 0.57251 25.5 6.16876 25.5 13.0725Z" fill="black"/>
</svg>
