<svg width="28" height="29" viewBox="0 0 28 29" fill="none" xmlns="http://www.w3.org/2000/svg">
<path d="M14.1468 19.1613L8.97344 24.4963C8.34709 25.1196 7.51059 25.468 6.64011 25.468C5.76963 25.468 4.93312 25.1196 4.30677 24.4963C3.99958 24.1807 3.75583 23.8057 3.58951 23.3928C3.42319 22.9799 3.33758 22.5371 3.33758 22.09C3.33758 21.6429 3.42319 21.2001 3.58951 20.7872C3.75583 20.3743 3.99958 19.9993 4.30677 19.6838L9.48011 14.3488C9.73118 14.0898 9.87223 13.7387 9.87223 13.3725C9.87223 13.0063 9.73118 12.6552 9.48011 12.3963C9.22904 12.1373 8.88851 11.9919 8.53344 11.9919C8.17837 11.9919 7.83785 12.1373 7.58677 12.3963L2.41344 17.745C1.37125 18.9149 0.807602 20.4547 0.840207 22.0429C0.872812 23.6312 1.49915 25.145 2.58842 26.2683C3.67769 27.3916 5.14566 28.0375 6.68577 28.0712C8.22588 28.1048 9.71905 27.5235 10.8534 26.4488L16.0401 21.1138C16.2912 20.8548 16.4322 20.5037 16.4322 20.1375C16.4322 19.7713 16.2912 19.4202 16.0401 19.1613C15.789 18.9023 15.4485 18.7569 15.0934 18.7569C14.7384 18.7569 14.3978 18.9023 14.1468 19.1613ZM25.5868 2.55126C24.4651 1.40177 22.9481 0.756592 21.3668 0.756592C19.7855 0.756592 18.2684 1.40177 17.1468 2.55126L11.9601 7.88626C11.8358 8.01446 11.7372 8.16666 11.6699 8.33417C11.6026 8.50167 11.568 8.6812 11.568 8.86251C11.568 9.04381 11.6026 9.22334 11.6699 9.39085C11.7372 9.55836 11.8358 9.71055 11.9601 9.83876C12.0844 9.96696 12.232 10.0687 12.3944 10.138C12.5569 10.2074 12.731 10.2431 12.9068 10.2431C13.0826 10.2431 13.2567 10.2074 13.4191 10.138C13.5815 10.0687 13.7291 9.96696 13.8534 9.83876L19.0268 4.50376C19.6531 3.88037 20.4896 3.53199 21.3601 3.53199C22.2306 3.53199 23.0671 3.88037 23.6934 4.50376C24.0006 4.8193 24.2444 5.1943 24.4107 5.60722C24.577 6.02015 24.6626 6.46288 24.6626 6.91001C24.6626 7.35714 24.577 7.79987 24.4107 8.2128C24.2444 8.62572 24.0006 9.00071 23.6934 9.31626L18.5201 14.6513C18.3951 14.7791 18.2959 14.9312 18.2283 15.0987C18.1606 15.2663 18.1257 15.446 18.1257 15.6275C18.1257 15.809 18.1606 15.9887 18.2283 16.1563C18.2959 16.3239 18.3951 16.4759 18.5201 16.6038C18.6441 16.7326 18.7915 16.8349 18.954 16.9047C19.1165 16.9745 19.2908 17.0105 19.4668 17.0105C19.6428 17.0105 19.8171 16.9745 19.9795 16.9047C20.142 16.8349 20.2895 16.7326 20.4134 16.6038L25.5868 11.255C26.7014 10.0983 27.3271 8.53385 27.3271 6.90313C27.3271 5.27242 26.7014 3.70794 25.5868 2.55126ZM9.77344 18.8588C9.89803 18.9862 10.0458 19.087 10.2082 19.1554C10.3707 19.2239 10.5446 19.2586 10.7201 19.2575C10.8956 19.2586 11.0695 19.2239 11.232 19.1554C11.3944 19.087 11.5422 18.9862 11.6668 18.8588L18.2268 12.0938C18.4778 11.8348 18.6189 11.4837 18.6189 11.1175C18.6189 10.7513 18.4778 10.4002 18.2268 10.1413C17.9757 9.88234 17.6352 9.73688 17.2801 9.73688C16.925 9.73688 16.5845 9.88234 16.3334 10.1413L9.77344 16.9063C9.64847 17.0341 9.54928 17.1862 9.48159 17.3537C9.41389 17.5213 9.37904 17.701 9.37904 17.8825C9.37904 18.064 9.41389 18.2437 9.48159 18.4113C9.54928 18.5789 9.64847 18.7309 9.77344 18.8588Z" fill="black"/>
</svg>
