<svg width="20" height="18" viewBox="0 0 20 18" fill="none" xmlns="http://www.w3.org/2000/svg">
<path d="M9.835 0C7.43599 0.00658097 5.13122 0.899022 3.39673 2.493V0.9C3.39673 0.661305 3.29814 0.432386 3.12264 0.263604C2.94715 0.0948211 2.70913 0 2.46094 0C2.21275 0 1.97473 0.0948211 1.79923 0.263604C1.62373 0.432386 1.52514 0.661305 1.52514 0.9V4.95C1.52514 5.18869 1.62373 5.41761 1.79923 5.58639C1.97473 5.75518 2.21275 5.85 2.46094 5.85H6.67202C6.9202 5.85 7.15823 5.75518 7.33372 5.58639C7.50922 5.41761 7.60781 5.18869 7.60781 4.95C7.60781 4.7113 7.50922 4.48239 7.33372 4.3136C7.15823 4.14482 6.9202 4.05 6.67202 4.05H4.42611C5.62933 2.84072 7.23303 2.07239 8.96147 1.8771C10.6899 1.68182 12.4351 2.07178 13.897 2.97994C15.3588 3.8881 16.4461 5.25772 16.9717 6.85331C17.4973 8.4489 17.4285 10.1708 16.7771 11.7229C16.1257 13.2749 14.9324 14.5603 13.4024 15.3579C11.8724 16.1555 10.1012 16.4155 8.39346 16.0932C6.6857 15.7709 5.14804 14.8865 4.04486 13.592C2.94167 12.2975 2.34189 10.6737 2.34864 9C2.34864 8.7613 2.25005 8.53238 2.07455 8.3636C1.89906 8.19482 1.66103 8.1 1.41285 8.1C1.16466 8.1 0.926634 8.19482 0.751139 8.3636C0.575643 8.53238 0.477051 8.7613 0.477051 9C0.477051 10.78 1.02589 12.5201 2.05415 14.0001C3.08242 15.4802 4.54393 16.6337 6.25387 17.3149C7.96381 17.9961 9.84538 18.1743 11.6606 17.8271C13.4759 17.4798 15.1433 16.6226 16.4521 15.364C17.7608 14.1053 18.6521 12.5016 19.0131 10.7558C19.3742 9.00998 19.1889 7.20038 18.4806 5.55585C17.7723 3.91131 16.5729 2.50571 15.034 1.51677C13.4951 0.527841 11.6858 0 9.835 0ZM9.835 5.4C9.58681 5.4 9.34879 5.49482 9.1733 5.6636C8.9978 5.83239 8.89921 6.0613 8.89921 6.3V9C8.89921 9.23869 8.9978 9.46761 9.1733 9.63639C9.34879 9.80518 9.58681 9.9 9.835 9.9H11.7066C11.9548 9.9 12.1928 9.80518 12.3683 9.63639C12.5438 9.46761 12.6424 9.23869 12.6424 9C12.6424 8.7613 12.5438 8.53238 12.3683 8.3636C12.1928 8.19482 11.9548 8.1 11.7066 8.1H10.7708V6.3C10.7708 6.0613 10.6722 5.83239 10.4967 5.6636C10.3212 5.49482 10.0832 5.4 9.835 5.4Z" fill="#A4A0A0"/>
</svg>
