<svg width="29" height="23" viewBox="0 0 29 23" fill="none" xmlns="http://www.w3.org/2000/svg">
<path d="M25.9538 5.78282C25.9714 6.02748 25.9714 6.27213 25.9714 6.51905C25.9714 14.0425 20.0311 22.7194 9.16892 22.7194V22.7149C5.96021 22.7194 2.81815 21.8332 0.116943 20.1623C0.583516 20.2164 1.05243 20.2435 1.52251 20.2446C4.18162 20.2469 6.76473 19.3866 8.8567 17.8026C6.32973 17.7563 4.1138 16.1678 3.33969 13.8486C4.22489 14.0132 5.13698 13.9794 6.00581 13.7505C3.25081 13.2139 1.26876 10.88 1.26876 8.16963C1.26876 8.14483 1.26876 8.12115 1.26876 8.09748C2.08965 8.53831 3.00876 8.78297 3.94892 8.81003C1.35412 7.13802 0.554282 3.80978 2.12122 1.20762C5.11944 4.76473 9.54311 6.92718 14.2919 7.15606C13.8159 5.17851 14.4661 3.10625 16.0003 1.7161C18.3788 -0.439582 22.1195 -0.329092 24.3553 1.96302C25.6779 1.71159 26.9455 1.2437 28.1055 0.580761C27.6646 1.89875 26.742 3.01831 25.5095 3.72973C26.68 3.59669 27.8236 3.29454 28.9006 2.83341C28.1078 3.9789 27.1092 4.97669 25.9538 5.78282Z" fill="#ACACAC"/>
</svg>
