<svg width="32" height="32" viewBox="0 0 32 32" fill="none" xmlns="http://www.w3.org/2000/svg">
<path fill-rule="evenodd" clip-rule="evenodd" d="M2.2604 23.7833L0 32L8.44663 29.7954C10.7827 31.0619 13.4003 31.7255 16.0603 31.7257H16.0671C24.8481 31.7257 31.9963 24.6112 32 15.8687C32.0017 11.6607 30.3238 7.62439 27.3356 4.64825C24.3474 1.67211 20.2937 1.98263e-05 16.0668 0C7.28416 0 0.137278 7.11298 0.133764 15.8559C0.130347 18.6386 0.863873 21.3729 2.2604 23.7833ZM9.32171 27.21L8.83792 26.9245L3.82577 28.2327L5.16379 23.3694L4.84852 22.8708C3.52227 20.7699 2.82041 18.3382 2.8241 15.8569C2.827 8.59015 8.7674 2.67827 16.0721 2.67827C23.3859 2.68121 29.3126 8.58616 29.3097 15.8674C29.3067 23.1347 23.366 29.0473 16.0671 29.0473H16.062C13.6904 29.0475 11.3624 28.4129 9.32171 27.21Z" fill="white"/>
<path d="M12.0849 9.22727C11.787 8.56728 11.4727 8.55405 11.1891 8.54279C10.957 8.53291 10.6914 8.53352 10.4261 8.53352C10.0182 8.54412 9.63326 8.72388 9.36427 9.02938C8.99934 9.42599 7.9707 10.3847 7.9707 12.3346C7.9707 14.2845 9.39742 16.169 9.59635 16.4339C9.79528 16.6988 12.3505 20.8275 16.3969 22.4162C19.7598 23.7364 20.4442 23.4738 21.1742 23.4077C21.9042 23.3417 23.5295 22.4495 23.8613 21.5237C24.1932 20.5979 24.1931 19.8049 24.0935 19.6394C23.994 19.4739 23.7285 19.3752 23.3304 19.177C22.9322 18.9788 20.9751 18.0199 20.6101 17.8877C20.2451 17.7555 19.9797 17.6895 19.7142 18.0863C19.4488 18.4832 18.6863 19.3752 18.4537 19.6394C18.2212 19.9036 17.9892 19.9373 17.591 19.7391C17.1929 19.5409 15.9104 19.1223 14.3896 17.7721C13.2062 16.7217 12.4072 15.4243 12.1749 15.0276C11.9427 14.6308 12.15 14.4165 12.3497 14.2189C12.5285 14.0414 12.7479 13.7563 12.9469 13.5249C13.146 13.2934 13.212 13.1282 13.3447 12.864C13.4775 12.5997 13.411 12.3679 13.3115 12.1697C13.212 11.9715 12.4389 10.011 12.0849 9.22727Z" fill="white"/>
</svg>
